<?xml version="1.0" encoding="UTF-8" standalone="no"?>
<!DOCTYPE svg PUBLIC "-//W3C//DTD SVG 1.1//EN" "http://www.w3.org/Graphics/SVG/1.1/DTD/svg11.dtd">
<svg width="100%" height="100%" viewBox="0 0 1771 1208" version="1.1" xmlns="http://www.w3.org/2000/svg" xmlns:xlink="http://www.w3.org/1999/xlink" xml:space="preserve" xmlns:serif="http://www.serif.com/" style="fill-rule:evenodd;clip-rule:evenodd;stroke-linejoin:round;stroke-miterlimit:2;">
    <g id="Background" transform="matrix(1.953125,0,0,1.953125,-95,-329)">
        <path d="M803.966,484.5C801.466,318.702 599.065,283.067 527.891,398.762C486.689,465.737 513.435,515.517 497.385,523.263C489.122,527.251 488.669,525.772 384.567,543.836C359.821,548.13 360.085,538.297 356.887,504.451C355.033,484.825 344.244,370.65 445.526,274.527C578.145,148.664 726.445,182.947 802.221,226.972C1011.493,348.554 996.227,655.29 776.602,756.72C697.219,793.381 617.256,784.316 610.912,778.073C606.066,773.304 607.505,772.002 617.315,647.485C619.684,617.402 641.437,639.945 687.538,626.616C799.078,594.364 803.312,499.183 803.966,484.5Z" style="fill:url(#_Linear1);"/>
        <path d="M355.493,325.036C161.525,336.487 159.006,589.066 327.454,623.774C355.653,629.584 399.471,623.089 395.029,618.915C375.683,600.736 340.402,576.09 392.444,567.161C575.595,535.736 577.411,532.952 588.166,540.971C604.036,552.803 597.294,569.949 588.158,651.454C576.705,753.624 578.304,779.571 554.382,767.744C543.55,762.389 519.227,732.125 514.669,734.797C287.942,867.759 33.428,687.215 52.867,451.544C69.137,254.292 258.41,134.88 434.578,182.236C473.707,192.755 464.222,210.606 462.643,213.578C449.432,238.441 424.368,237.206 372.184,316.28C366.697,324.594 365.399,323.243 355.493,325.036Z" style="fill:url(#_Linear2);"/>
    </g>
    <g id="Artboard1" transform="matrix(37.680851,0,0,7.023256,-76153,-7044.325581)">
        <rect x="2021" y="1003" width="47" height="172" style="fill:none;"/>
    </g>
    <defs>
        <linearGradient id="_Linear1" x1="0" y1="0" x2="1" y2="0" gradientUnits="userSpaceOnUse" gradientTransform="matrix(702.976,307.712,-307.712,702.976,144.384,301.056)"><stop offset="0" style="stop-color:rgb(23,54,87);stop-opacity:1"/><stop offset="0.25" style="stop-color:rgb(40,57,110);stop-opacity:1"/><stop offset="0.5" style="stop-color:rgb(46,58,118);stop-opacity:1"/><stop offset="0.78" style="stop-color:rgb(110,57,159);stop-opacity:1"/><stop offset="1" style="stop-color:rgb(137,56,176);stop-opacity:1"/></linearGradient>
        <linearGradient id="_Linear2" x1="0" y1="0" x2="1" y2="0" gradientUnits="userSpaceOnUse" gradientTransform="matrix(702.976,307.712,-307.712,702.976,144.384,301.056)"><stop offset="0" style="stop-color:rgb(23,54,87);stop-opacity:1"/><stop offset="0.25" style="stop-color:rgb(40,57,110);stop-opacity:1"/><stop offset="0.5" style="stop-color:rgb(46,58,118);stop-opacity:1"/><stop offset="0.78" style="stop-color:rgb(110,57,159);stop-opacity:1"/><stop offset="1" style="stop-color:rgb(137,56,176);stop-opacity:1"/></linearGradient>
    </defs>
</svg>
