<?xml version="1.0" encoding="UTF-8" standalone="no"?>
<!DOCTYPE svg PUBLIC "-//W3C//DTD SVG 1.1//EN" "http://www.w3.org/Graphics/SVG/1.1/DTD/svg11.dtd">
<svg width="100%" height="100%" viewBox="0 0 1775 1029" version="1.1" xmlns="http://www.w3.org/2000/svg" xmlns:xlink="http://www.w3.org/1999/xlink" xml:space="preserve" xmlns:serif="http://www.serif.com/" style="fill-rule:evenodd;clip-rule:evenodd;stroke-linejoin:round;stroke-miterlimit:2;">
    <g id="Background" transform="matrix(1.742188,0,0,1.742188,-4,-6)">
        <path d="M451.991,145.966C531.187,66.336 583.08,3.214 733.5,6.512C915.268,10.498 1065.098,189.648 1006.998,383.656C1002.325,399.26 975.267,489.615 884.199,546.067C703.379,658.154 508.732,534.228 511.909,525.537C513.3,521.731 598.761,437.188 601.659,434.698C608.037,429.218 608.73,432.92 616.385,436.737C753.616,505.158 882.195,428.838 889.741,310.524C897.56,187.93 761.263,78.873 630.399,152.343C619.434,158.499 598.959,169.994 513.93,257.907C499.112,273.228 492.577,276.121 498.464,275.733C504.539,275.333 543.893,272.74 574.487,272.19C695.834,270.011 696.092,268.881 700.389,270.787C711.641,275.776 705.369,286.414 704.664,287.61C704.192,288.41 472.991,519.63 470.143,522.145C304.97,668.025 61.437,569.788 12.681,372.456C-29.461,201.893 79.634,76.107 167.665,35.809C276.902,-14.195 364.008,13.003 378.541,15.331C412.092,20.704 488.941,58.55 490.023,67.534C490.473,71.271 409.982,149.661 407.328,151.147C403.143,153.489 368.713,136.353 355.607,134.102C341.609,131.699 341.674,131.858 340.495,131.52C315.178,124.277 266.532,130.911 239.367,143.168C96.044,207.839 108.427,402.511 241.655,451.073C252.375,454.981 280.214,460.074 282.531,460.145C312.709,461.074 312.595,459.061 319.515,458.648C376.245,455.254 420.577,403.636 454.077,370.08C496.399,327.687 496.402,327.889 500.058,324.196C503.852,320.364 487.617,323.665 463.502,323.891C336.105,325.082 319.193,332.732 308.882,310.366C299.84,290.753 310.423,289.783 451.991,145.966Z" style="fill:white;"/>
<svg width="100%" height="100%" viewBox="0 0 2000 2000" version="1.1" xmlns="http://www.w3.org/2000/svg" xmlns:xlink="http://www.w3.org/1999/xlink" xml:space="preserve" xmlns:serif="http://www.serif.com/" style="fill-rule:evenodd;clip-rule:evenodd;stroke-linejoin:round;stroke-miterlimit:2;">
    <g id="Background" transform="matrix(1.953125,0,0,1.953125,0,0)">
        <g transform="matrix(1,0,0,1,-0.512,-0.512)">
            <path d="M748.441,210.696C748.17,330.578 748.611,332.247 748.592,514.5C748.573,695.929 619.54,786.733 515.422,808.04C479.152,815.463 479.163,814.185 277.812,814.497C277.054,814.503 276.473,814.51 275.86,814.503C275.867,814.042 275.864,813.982 275.87,813.494C275.868,812.963 275.872,812.749 275.872,812.195C275.884,810.598 275.38,810.125 275.385,808.5C275.385,771.167 275.385,733.833 275.385,696.5C275.385,465.044 273.52,463.946 287.598,417.537C334.138,264.115 475.496,210.334 558.5,210.283C573.54,210.274 746.487,210.675 746.501,210.68C747.449,210.693 747.41,210.69 748.206,210.699C748.277,210.7 748.347,210.698 748.441,210.696Z" style="fill:rgb(242,243,248);"/>
        </g>
        <path d="M747.927,210.184C747.851,210.187 747.737,210.189 747.737,210.189C747.498,210.189 747.478,210.186 747.282,210.186C747.191,210.187 747.153,210.184 747,210.182C746.84,210.182 746.811,210.181 746.575,210.18C746.46,210.175 573.54,210.274 558.5,210.283C475.496,210.334 334.138,264.115 287.598,417.537C273.52,463.946 275.385,465.044 275.385,696.5C275.385,733.833 275.385,771.167 275.385,808.5C275.384,808.869 275.391,809.192 275.388,809.476C275.394,810.165 275.38,810.092 275.377,810.585C275.376,810.669 275.374,810.768 275.363,810.891C275.371,811.651 275.374,811.395 275.369,812.547C275.375,813.409 275.364,812.607 275.351,813.989C239.839,813.889 273.054,813.871 231.772,813.872C223.492,813.872 220.072,813.724 210.676,813.005C195.09,811.811 175.849,806.519 169.276,782.56C167.523,776.17 167.95,776.016 168.021,393.5C168.048,252.861 271.77,133.975 405.558,109.921C435.254,104.582 435.441,105.231 667.5,105.239C706.603,105.24 727.166,101.61 742.035,124.78C748.178,136.754 748.333,157.444 747.955,176.781C747.703,189.644 747.912,201.927 747.927,210.184Z" style="fill:white;"/>
        <g transform="matrix(1,0,0,1,-0.512,-0.512)">
            <path d="M748.441,210.696C760.881,210.571 817.319,210.306 817.508,210.32C834.154,211.515 854.369,225.332 856.016,249.514C856.115,250.971 856.054,597.261 856.048,627.5C856.02,788.457 732.605,898.846 607.561,915.823C584.176,918.998 584.11,918.669 395.5,918.654C307.286,918.647 306.263,919.776 294.768,912.086C271.103,896.254 276.254,880.096 275.864,814.495C277.935,814.513 278.2,814.481 279.479,814.477C480.83,814.165 479.152,815.378 515.422,808.04C619.54,786.733 748.573,695.929 748.592,514.5C748.611,332.247 748.167,332.389 748.438,212.507C748.439,211.621 748.429,211.567 748.441,210.696Z" style="fill:rgb(138,150,199);"/>
        </g>
    </g>
</svg>
