<svg xmlns="http://www.w3.org/2000/svg" xmlns:xlink="http://www.w3.org/1999/xlink" width="2000" zoomAndPan="magnify" viewBox="0 0 1500 1499.999933" height="2000" preserveAspectRatio="xMidYMid meet" version="1.0"><defs><filter x="0%" y="0%" width="100%" height="100%" id="a4f7cc4007"><feColorMatrix values="0 0 0 0 1 0 0 0 0 1 0 0 0 0 1 0 0 0 1 0" color-interpolation-filters="sRGB"/></filter><clipPath id="d585a15c28"><path d="M 498.96875 310.023438 L 1349.707031 310.023438 L 1349.707031 1347 L 498.96875 1347 Z M 498.96875 310.023438 " clip-rule="nonzero"/></clipPath><clipPath id="e5cd55ec68"><path d="M 924.335938 310.023438 C 1037.15625 310.023438 1145.351562 354.847656 1225.097656 434.59375 C 1304.882812 514.378906 1349.707031 622.574219 1349.707031 735.394531 L 1349.707031 922.730469 C 1349.707031 1035.550781 1304.882812 1143.746094 1225.097656 1223.53125 C 1145.351562 1303.277344 1037.15625 1348.101562 924.335938 1348.101562 C 811.515625 1348.101562 703.324219 1303.277344 623.578125 1223.53125 C 543.789062 1143.746094 498.96875 1035.550781 498.96875 922.730469 L 498.96875 735.394531 C 498.96875 622.574219 543.789062 514.378906 623.578125 434.59375 C 703.324219 354.847656 811.515625 310.023438 924.335938 310.023438 Z M 924.335938 310.023438 " clip-rule="nonzero"/></clipPath><clipPath id="f07e78f8c8"><path d="M 924.335938 310.023438 C 1037.15625 310.023438 1145.351562 354.847656 1225.097656 434.59375 C 1304.882812 514.378906 1349.707031 622.574219 1349.707031 735.394531 L 1349.707031 922.730469 C 1349.707031 1035.550781 1304.882812 1143.746094 1225.097656 1223.53125 C 1145.351562 1303.277344 1037.15625 1348.101562 924.335938 1348.101562 C 811.515625 1348.101562 703.324219 1303.277344 623.578125 1223.53125 C 543.789062 1143.746094 498.96875 1035.550781 498.96875 922.730469 L 498.96875 735.394531 C 498.96875 622.574219 543.789062 514.378906 623.578125 434.59375 C 703.324219 354.847656 811.515625 310.023438 924.335938 310.023438 Z M 924.335938 310.023438 " clip-rule="nonzero"/></clipPath><clipPath id="06b4d44238"><path d="M 860.523438 310.023438 L 1350 310.023438 L 1350 795.144531 L 860.523438 795.144531 Z M 860.523438 310.023438 " clip-rule="nonzero"/></clipPath><clipPath id="66465aaeae"><path d="M 922.324219 310.023438 L 1287.90625 310.023438 C 1322.023438 310.023438 1349.707031 337.667969 1349.707031 371.824219 L 1349.707031 733.34375 C 1349.707031 767.503906 1322.023438 795.144531 1287.90625 795.144531 L 922.324219 795.144531 C 888.164062 795.144531 860.523438 767.503906 860.523438 733.34375 L 860.523438 371.824219 C 860.523438 337.667969 888.164062 310.023438 922.324219 310.023438 Z M 922.324219 310.023438 " clip-rule="nonzero"/></clipPath><clipPath id="d438dee8cd"><path d="M 922.324219 310.023438 L 1287.90625 310.023438 C 1322.023438 310.023438 1349.707031 337.667969 1349.707031 371.824219 L 1349.707031 733.34375 C 1349.707031 767.503906 1322.023438 795.144531 1287.90625 795.144531 L 922.324219 795.144531 C 888.164062 795.144531 860.523438 767.503906 860.523438 733.34375 L 860.523438 371.824219 C 860.523438 337.667969 888.164062 310.023438 922.324219 310.023438 Z M 922.324219 310.023438 " clip-rule="nonzero"/></clipPath><clipPath id="a1359cec6b"><path d="M 498.96875 829.0625 L 1004.324219 829.0625 L 1004.324219 1348.179688 L 498.96875 1348.179688 Z M 498.96875 829.0625 " clip-rule="nonzero"/></clipPath><clipPath id="500d58537b"><path d="M 560.769531 829.0625 L 942.523438 829.0625 C 976.683594 829.0625 1004.324219 856.746094 1004.324219 890.863281 L 1004.324219 1286.296875 C 1004.324219 1320.457031 976.683594 1348.101562 942.523438 1348.101562 L 560.769531 1348.101562 C 526.648438 1348.101562 498.96875 1320.457031 498.96875 1286.296875 L 498.96875 890.863281 C 498.96875 856.746094 526.648438 829.0625 560.769531 829.0625 Z M 560.769531 829.0625 " clip-rule="nonzero"/></clipPath><clipPath id="024dd16a0f"><path d="M 560.769531 829.0625 L 942.523438 829.0625 C 976.683594 829.0625 1004.324219 856.746094 1004.324219 890.863281 L 1004.324219 1286.296875 C 1004.324219 1320.457031 976.683594 1348.101562 942.523438 1348.101562 L 560.769531 1348.101562 C 526.648438 1348.101562 498.96875 1320.457031 498.96875 1286.296875 L 498.96875 890.863281 C 498.96875 856.746094 526.648438 829.0625 560.769531 829.0625 Z M 560.769531 829.0625 " clip-rule="nonzero"/></clipPath><clipPath id="e467782475"><path d="M 151.148438 152.523438 L 1001.886719 152.523438 L 1001.886719 1190 L 151.148438 1190 Z M 151.148438 152.523438 " clip-rule="nonzero"/></clipPath><clipPath id="213506fdb7"><path d="M 576.519531 152.523438 C 689.339844 152.523438 797.53125 197.34375 877.277344 277.09375 C 957.066406 356.878906 1001.886719 465.070312 1001.886719 577.890625 L 1001.886719 765.230469 C 1001.886719 878.050781 957.066406 986.242188 877.277344 1066.03125 C 797.53125 1145.777344 689.339844 1190.597656 576.519531 1190.597656 C 463.699219 1190.597656 355.503906 1145.777344 275.757812 1066.03125 C 195.972656 986.242188 151.148438 878.050781 151.148438 765.230469 L 151.148438 577.890625 C 151.148438 465.070312 195.972656 356.878906 275.757812 277.09375 C 355.503906 197.34375 463.699219 152.523438 576.519531 152.523438 Z M 576.519531 152.523438 " clip-rule="nonzero"/></clipPath><clipPath id="422e49e9cf"><path d="M 576.519531 152.523438 C 689.339844 152.523438 797.53125 197.34375 877.277344 277.09375 C 957.066406 356.878906 1001.886719 465.070312 1001.886719 577.890625 L 1001.886719 765.230469 C 1001.886719 878.050781 957.066406 986.242188 877.277344 1066.03125 C 797.53125 1145.777344 689.339844 1190.597656 576.519531 1190.597656 C 463.699219 1190.597656 355.503906 1145.777344 275.757812 1066.03125 C 195.972656 986.242188 151.148438 878.050781 151.148438 765.230469 L 151.148438 577.890625 C 151.148438 465.070312 195.972656 356.878906 275.757812 277.09375 C 355.503906 197.34375 463.699219 152.523438 576.519531 152.523438 Z M 576.519531 152.523438 " clip-rule="nonzero"/></clipPath><clipPath id="54b156c65e"><path d="M 512.707031 152.523438 L 1002 152.523438 L 1002 637.640625 L 512.707031 637.640625 Z M 512.707031 152.523438 " clip-rule="nonzero"/></clipPath><clipPath id="f17409c48b"><path d="M 574.507812 152.523438 L 940.085938 152.523438 C 974.207031 152.523438 1001.886719 180.164062 1001.886719 214.324219 L 1001.886719 575.839844 C 1001.886719 610 974.207031 637.640625 940.085938 637.640625 L 574.507812 637.640625 C 540.347656 637.640625 512.707031 610 512.707031 575.839844 L 512.707031 214.324219 C 512.707031 180.164062 540.347656 152.523438 574.507812 152.523438 Z M 574.507812 152.523438 " clip-rule="nonzero"/></clipPath><clipPath id="bdb6db34c4"><path d="M 574.507812 152.523438 L 940.085938 152.523438 C 974.207031 152.523438 1001.886719 180.164062 1001.886719 214.324219 L 1001.886719 575.839844 C 1001.886719 610 974.207031 637.640625 940.085938 637.640625 L 574.507812 637.640625 C 540.347656 637.640625 512.707031 610 512.707031 575.839844 L 512.707031 214.324219 C 512.707031 180.164062 540.347656 152.523438 574.507812 152.523438 Z M 574.507812 152.523438 " clip-rule="nonzero"/></clipPath><clipPath id="2310831b45"><path d="M 151.148438 671.5625 L 656.507812 671.5625 L 656.507812 1190.679688 L 151.148438 1190.679688 Z M 151.148438 671.5625 " clip-rule="nonzero"/></clipPath><clipPath id="842bc59fb1"><path d="M 212.949219 671.5625 L 594.707031 671.5625 C 628.863281 671.5625 656.507812 699.242188 656.507812 733.363281 L 656.507812 1128.796875 C 656.507812 1162.957031 628.863281 1190.597656 594.707031 1190.597656 L 212.949219 1190.597656 C 178.832031 1190.597656 151.148438 1162.957031 151.148438 1128.796875 L 151.148438 733.363281 C 151.148438 699.242188 178.832031 671.5625 212.949219 671.5625 Z M 212.949219 671.5625 " clip-rule="nonzero"/></clipPath><clipPath id="52ad35be60"><path d="M 212.949219 671.5625 L 594.707031 671.5625 C 628.863281 671.5625 656.507812 699.242188 656.507812 733.363281 L 656.507812 1128.796875 C 656.507812 1162.957031 628.863281 1190.597656 594.707031 1190.597656 L 212.949219 1190.597656 C 178.832031 1190.597656 151.148438 1162.957031 151.148438 1128.796875 L 151.148438 733.363281 C 151.148438 699.242188 178.832031 671.5625 212.949219 671.5625 Z M 212.949219 671.5625 " clip-rule="nonzero"/></clipPath><mask id="5934f92f8d"><g filter="url(#a4f7cc4007)"><rect x="-150" width="1800" fill="#000000" y="-149.999993" height="1799.99992" fill-opacity="0.2"/></g></mask><clipPath id="9ac3906a42"><path d="M 7.96875 7.023438 L 858.707031 7.023438 L 858.707031 1044 L 7.96875 1044 Z M 7.96875 7.023438 " clip-rule="nonzero"/></clipPath><clipPath id="6838907714"><path d="M 433.335938 7.023438 C 546.15625 7.023438 654.351562 51.847656 734.097656 131.59375 C 813.882812 211.378906 858.707031 319.574219 858.707031 432.394531 L 858.707031 619.730469 C 858.707031 732.550781 813.882812 840.746094 734.097656 920.53125 C 654.351562 1000.277344 546.15625 1045.101562 433.335938 1045.101562 C 320.515625 1045.101562 212.324219 1000.277344 132.578125 920.53125 C 52.789062 840.746094 7.96875 732.550781 7.96875 619.730469 L 7.96875 432.394531 C 7.96875 319.574219 52.789062 211.378906 132.578125 131.59375 C 212.324219 51.847656 320.515625 7.023438 433.335938 7.023438 Z M 433.335938 7.023438 " clip-rule="nonzero"/></clipPath><clipPath id="c99c04ef12"><path d="M 433.335938 7.023438 C 546.15625 7.023438 654.351562 51.847656 734.097656 131.59375 C 813.882812 211.378906 858.707031 319.574219 858.707031 432.394531 L 858.707031 619.730469 C 858.707031 732.550781 813.882812 840.746094 734.097656 920.53125 C 654.351562 1000.277344 546.15625 1045.101562 433.335938 1045.101562 C 320.515625 1045.101562 212.324219 1000.277344 132.578125 920.53125 C 52.789062 840.746094 7.96875 732.550781 7.96875 619.730469 L 7.96875 432.394531 C 7.96875 319.574219 52.789062 211.378906 132.578125 131.59375 C 212.324219 51.847656 320.515625 7.023438 433.335938 7.023438 Z M 433.335938 7.023438 " clip-rule="nonzero"/></clipPath><clipPath id="80910e54a5"><path d="M 369.523438 7.023438 L 859 7.023438 L 859 492.144531 L 369.523438 492.144531 Z M 369.523438 7.023438 " clip-rule="nonzero"/></clipPath><clipPath id="d6afc80219"><path d="M 431.324219 7.023438 L 796.90625 7.023438 C 831.023438 7.023438 858.707031 34.667969 858.707031 68.824219 L 858.707031 430.34375 C 858.707031 464.503906 831.023438 492.144531 796.90625 492.144531 L 431.324219 492.144531 C 397.164062 492.144531 369.523438 464.503906 369.523438 430.34375 L 369.523438 68.824219 C 369.523438 34.667969 397.164062 7.023438 431.324219 7.023438 Z M 431.324219 7.023438 " clip-rule="nonzero"/></clipPath><clipPath id="6f242d7ee1"><path d="M 431.324219 7.023438 L 796.90625 7.023438 C 831.023438 7.023438 858.707031 34.667969 858.707031 68.824219 L 858.707031 430.34375 C 858.707031 464.503906 831.023438 492.144531 796.90625 492.144531 L 431.324219 492.144531 C 397.164062 492.144531 369.523438 464.503906 369.523438 430.34375 L 369.523438 68.824219 C 369.523438 34.667969 397.164062 7.023438 431.324219 7.023438 Z M 431.324219 7.023438 " clip-rule="nonzero"/></clipPath><clipPath id="00a562a243"><path d="M 7.96875 526.0625 L 513.324219 526.0625 L 513.324219 1045.179688 L 7.96875 1045.179688 Z M 7.96875 526.0625 " clip-rule="nonzero"/></clipPath><clipPath id="6c99b3118e"><path d="M 69.769531 526.0625 L 451.523438 526.0625 C 485.683594 526.0625 513.324219 553.746094 513.324219 587.863281 L 513.324219 983.296875 C 513.324219 1017.457031 485.683594 1045.101562 451.523438 1045.101562 L 69.769531 1045.101562 C 35.648438 1045.101562 7.96875 1017.457031 7.96875 983.296875 L 7.96875 587.863281 C 7.96875 553.746094 35.648438 526.0625 69.769531 526.0625 Z M 69.769531 526.0625 " clip-rule="nonzero"/></clipPath><clipPath id="a4e28c5b66"><path d="M 69.769531 526.0625 L 451.523438 526.0625 C 485.683594 526.0625 513.324219 553.746094 513.324219 587.863281 L 513.324219 983.296875 C 513.324219 1017.457031 485.683594 1045.101562 451.523438 1045.101562 L 69.769531 1045.101562 C 35.648438 1045.101562 7.96875 1017.457031 7.96875 983.296875 L 7.96875 587.863281 C 7.96875 553.746094 35.648438 526.0625 69.769531 526.0625 Z M 69.769531 526.0625 " clip-rule="nonzero"/></clipPath><clipPath id="9d50dbd0a9"><rect x="0" width="866" y="0" height="1052"/></clipPath><mask id="751c0c99b1"><g filter="url(#a4f7cc4007)"><rect x="-150" width="1800" fill="#000000" y="-149.999993" height="1799.99992" fill-opacity="0.4"/></g></mask><clipPath id="c8c4b901d2"><path d="M 8.148438 6.523438 L 858.886719 6.523438 L 858.886719 1044 L 8.148438 1044 Z M 8.148438 6.523438 " clip-rule="nonzero"/></clipPath><clipPath id="54d72d9886"><path d="M 433.519531 6.523438 C 546.339844 6.523438 654.53125 51.34375 734.277344 131.09375 C 814.066406 210.878906 858.886719 319.070312 858.886719 431.890625 L 858.886719 619.230469 C 858.886719 732.050781 814.066406 840.242188 734.277344 920.03125 C 654.53125 999.777344 546.339844 1044.597656 433.519531 1044.597656 C 320.699219 1044.597656 212.503906 999.777344 132.757812 920.03125 C 52.972656 840.242188 8.148438 732.050781 8.148438 619.230469 L 8.148438 431.890625 C 8.148438 319.070312 52.972656 210.878906 132.757812 131.09375 C 212.503906 51.34375 320.699219 6.523438 433.519531 6.523438 Z M 433.519531 6.523438 " clip-rule="nonzero"/></clipPath><clipPath id="774d8de045"><path d="M 433.519531 6.523438 C 546.339844 6.523438 654.53125 51.34375 734.277344 131.09375 C 814.066406 210.878906 858.886719 319.070312 858.886719 431.890625 L 858.886719 619.230469 C 858.886719 732.050781 814.066406 840.242188 734.277344 920.03125 C 654.53125 999.777344 546.339844 1044.597656 433.519531 1044.597656 C 320.699219 1044.597656 212.503906 999.777344 132.757812 920.03125 C 52.972656 840.242188 8.148438 732.050781 8.148438 619.230469 L 8.148438 431.890625 C 8.148438 319.070312 52.972656 210.878906 132.757812 131.09375 C 212.503906 51.34375 320.699219 6.523438 433.519531 6.523438 Z M 433.519531 6.523438 " clip-rule="nonzero"/></clipPath><clipPath id="1cd0eb9ce7"><path d="M 369.707031 6.523438 L 859 6.523438 L 859 491.640625 L 369.707031 491.640625 Z M 369.707031 6.523438 " clip-rule="nonzero"/></clipPath><clipPath id="df8fe27f49"><path d="M 431.507812 6.523438 L 797.085938 6.523438 C 831.207031 6.523438 858.886719 34.164062 858.886719 68.324219 L 858.886719 429.839844 C 858.886719 464 831.207031 491.640625 797.085938 491.640625 L 431.507812 491.640625 C 397.347656 491.640625 369.707031 464 369.707031 429.839844 L 369.707031 68.324219 C 369.707031 34.164062 397.347656 6.523438 431.507812 6.523438 Z M 431.507812 6.523438 " clip-rule="nonzero"/></clipPath><clipPath id="4c6a0d1f6d"><path d="M 431.507812 6.523438 L 797.085938 6.523438 C 831.207031 6.523438 858.886719 34.164062 858.886719 68.324219 L 858.886719 429.839844 C 858.886719 464 831.207031 491.640625 797.085938 491.640625 L 431.507812 491.640625 C 397.347656 491.640625 369.707031 464 369.707031 429.839844 L 369.707031 68.324219 C 369.707031 34.164062 397.347656 6.523438 431.507812 6.523438 Z M 431.507812 6.523438 " clip-rule="nonzero"/></clipPath><clipPath id="37d78d04a9"><path d="M 8.148438 525.5625 L 513.507812 525.5625 L 513.507812 1044.679688 L 8.148438 1044.679688 Z M 8.148438 525.5625 " clip-rule="nonzero"/></clipPath><clipPath id="1961cb9280"><path d="M 69.949219 525.5625 L 451.707031 525.5625 C 485.863281 525.5625 513.507812 553.242188 513.507812 587.363281 L 513.507812 982.796875 C 513.507812 1016.957031 485.863281 1044.597656 451.707031 1044.597656 L 69.949219 1044.597656 C 35.832031 1044.597656 8.148438 1016.957031 8.148438 982.796875 L 8.148438 587.363281 C 8.148438 553.242188 35.832031 525.5625 69.949219 525.5625 Z M 69.949219 525.5625 " clip-rule="nonzero"/></clipPath><clipPath id="234cd6d771"><path d="M 69.949219 525.5625 L 451.707031 525.5625 C 485.863281 525.5625 513.507812 553.242188 513.507812 587.363281 L 513.507812 982.796875 C 513.507812 1016.957031 485.863281 1044.597656 451.707031 1044.597656 L 69.949219 1044.597656 C 35.832031 1044.597656 8.148438 1016.957031 8.148438 982.796875 L 8.148438 587.363281 C 8.148438 553.242188 35.832031 525.5625 69.949219 525.5625 Z M 69.949219 525.5625 " clip-rule="nonzero"/></clipPath><clipPath id="ac520ce3ef"><rect x="0" width="867" y="0" height="1051"/></clipPath></defs><g clip-path="url(#d585a15c28)"><g clip-path="url(#e5cd55ec68)"><g clip-path="url(#f07e78f8c8)"><path fill="#a8b3f0" d="M 498.96875 310.023438 L 1349.707031 310.023438 L 1349.707031 1346.851562 L 498.96875 1346.851562 Z M 498.96875 310.023438 " fill-opacity="1" fill-rule="nonzero"/></g></g></g><g clip-path="url(#06b4d44238)"><g clip-path="url(#66465aaeae)"><g clip-path="url(#d438dee8cd)"><path fill="#a8b3f0" d="M 860.523438 310.023438 L 1349.425781 310.023438 L 1349.425781 795.144531 L 860.523438 795.144531 Z M 860.523438 310.023438 " fill-opacity="1" fill-rule="nonzero"/></g></g></g><g clip-path="url(#a1359cec6b)"><g clip-path="url(#500d58537b)"><g clip-path="url(#024dd16a0f)"><path fill="#a8b3f0" d="M 498.96875 829.0625 L 1004.324219 829.0625 L 1004.324219 1348.261719 L 498.96875 1348.261719 Z M 498.96875 829.0625 " fill-opacity="1" fill-rule="nonzero"/></g></g></g><g clip-path="url(#e467782475)"><g clip-path="url(#213506fdb7)"><g clip-path="url(#422e49e9cf)"><path fill="#4f5fe8" d="M 151.148438 152.523438 L 1001.886719 152.523438 L 1001.886719 1189.351562 L 151.148438 1189.351562 Z M 151.148438 152.523438 " fill-opacity="1" fill-rule="nonzero"/></g></g></g><g clip-path="url(#54b156c65e)"><g clip-path="url(#f17409c48b)"><g clip-path="url(#bdb6db34c4)"><path fill="#4f5fe8" d="M 512.707031 152.523438 L 1001.605469 152.523438 L 1001.605469 637.640625 L 512.707031 637.640625 Z M 512.707031 152.523438 " fill-opacity="1" fill-rule="nonzero"/></g></g></g><g clip-path="url(#2310831b45)"><g clip-path="url(#842bc59fb1)"><g clip-path="url(#52ad35be60)"><path fill="#4f5fe8" d="M 151.148438 671.5625 L 656.507812 671.5625 L 656.507812 1190.761719 L 151.148438 1190.761719 Z M 151.148438 671.5625 " fill-opacity="1" fill-rule="nonzero"/></g></g></g><g mask="url(#5934f92f8d)"><g transform="matrix(1, 0, 0, 1, 491, 303)"><g clip-path="url(#9d50dbd0a9)"><g clip-path="url(#9ac3906a42)"><g clip-path="url(#6838907714)"><g clip-path="url(#c99c04ef12)"><path fill="#a8b3f0" d="M 7.96875 7.023438 L 858.707031 7.023438 L 858.707031 1043.851562 L 7.96875 1043.851562 Z M 7.96875 7.023438 " fill-opacity="1" fill-rule="nonzero"/></g></g></g><g clip-path="url(#80910e54a5)"><g clip-path="url(#d6afc80219)"><g clip-path="url(#6f242d7ee1)"><path fill="#a8b3f0" d="M 369.523438 7.023438 L 858.425781 7.023438 L 858.425781 492.144531 L 369.523438 492.144531 Z M 369.523438 7.023438 " fill-opacity="1" fill-rule="nonzero"/></g></g></g><g clip-path="url(#00a562a243)"><g clip-path="url(#6c99b3118e)"><g clip-path="url(#a4e28c5b66)"><path fill="#a8b3f0" d="M 7.96875 526.0625 L 513.324219 526.0625 L 513.324219 1045.261719 L 7.96875 1045.261719 Z M 7.96875 526.0625 " fill-opacity="1" fill-rule="nonzero"/></g></g></g></g></g></g><g mask="url(#751c0c99b1)"><g transform="matrix(1, 0, 0, 1, 143, 146)"><g clip-path="url(#ac520ce3ef)"><g clip-path="url(#c8c4b901d2)"><g clip-path="url(#54d72d9886)"><g clip-path="url(#774d8de045)"><path fill="#4f5fe8" d="M 8.148438 6.523438 L 858.886719 6.523438 L 858.886719 1043.351562 L 8.148438 1043.351562 Z M 8.148438 6.523438 " fill-opacity="1" fill-rule="nonzero"/></g></g></g><g clip-path="url(#1cd0eb9ce7)"><g clip-path="url(#df8fe27f49)"><g clip-path="url(#4c6a0d1f6d)"><path fill="#4f5fe8" d="M 369.707031 6.523438 L 858.605469 6.523438 L 858.605469 491.640625 L 369.707031 491.640625 Z M 369.707031 6.523438 " fill-opacity="1" fill-rule="nonzero"/></g></g></g><g clip-path="url(#37d78d04a9)"><g clip-path="url(#1961cb9280)"><g clip-path="url(#234cd6d771)"><path fill="#4f5fe8" d="M 8.148438 525.5625 L 513.507812 525.5625 L 513.507812 1044.761719 L 8.148438 1044.761719 Z M 8.148438 525.5625 " fill-opacity="1" fill-rule="nonzero"/></g></g></g></g></g></g></svg>