<?xml version="1.0" encoding="UTF-8" standalone="no"?>
<!DOCTYPE svg PUBLIC "-//W3C//DTD SVG 1.1//EN" "http://www.w3.org/Graphics/SVG/1.1/DTD/svg11.dtd">
<svg width="100%" height="100%" viewBox="0 0 1775 1029" version="1.1" xmlns="http://www.w3.org/2000/svg" xmlns:xlink="http://www.w3.org/1999/xlink" xml:space="preserve" xmlns:serif="http://www.serif.com/" style="fill-rule:evenodd;clip-rule:evenodd;stroke-linejoin:round;stroke-miterlimit:2;">
    <g id="Background" transform="matrix(1.742188,0,0,1.742188,-4,-6)">
        <path d="M451.991,145.966C531.187,66.336 583.08,3.214 733.5,6.512C915.268,10.498 1065.098,189.648 1006.998,383.656C1002.325,399.26 975.267,489.615 884.199,546.067C703.379,658.154 508.732,534.228 511.909,525.537C513.3,521.731 598.761,437.188 601.659,434.698C608.037,429.218 608.73,432.92 616.385,436.737C753.616,505.158 882.195,428.838 889.741,310.524C897.56,187.93 761.263,78.873 630.399,152.343C619.434,158.499 598.959,169.994 513.93,257.907C499.112,273.228 492.577,276.121 498.464,275.733C504.539,275.333 543.893,272.74 574.487,272.19C695.834,270.011 696.092,268.881 700.389,270.787C711.641,275.776 705.369,286.414 704.664,287.61C704.192,288.41 472.991,519.63 470.143,522.145C304.97,668.025 61.437,569.788 12.681,372.456C-29.461,201.893 79.634,76.107 167.665,35.809C276.902,-14.195 364.008,13.003 378.541,15.331C412.092,20.704 488.941,58.55 490.023,67.534C490.473,71.271 409.982,149.661 407.328,151.147C403.143,153.489 368.713,136.353 355.607,134.102C341.609,131.699 341.674,131.858 340.495,131.52C315.178,124.277 266.532,130.911 239.367,143.168C96.044,207.839 108.427,402.511 241.655,451.073C252.375,454.981 280.214,460.074 282.531,460.145C312.709,461.074 312.595,459.061 319.515,458.648C376.245,455.254 420.577,403.636 454.077,370.08C496.399,327.687 496.402,327.889 500.058,324.196C503.852,320.364 487.617,323.665 463.502,323.891C336.105,325.082 319.193,332.732 308.882,310.366C299.84,290.753 310.423,289.783 451.991,145.966Z" style="fill:url(#_Linear1);"/>
    </g>
    <defs>
        <linearGradient id="_Linear1" x1="0" y1="0" x2="1" y2="0" gradientUnits="userSpaceOnUse" gradientTransform="matrix(872.466368,354.152466,-354.152466,872.466368,72.896861,121.686099)"><stop offset="0" style="stop-color:rgb(23,54,87);stop-opacity:0.99"/><stop offset="0.5" style="stop-color:rgb(46,58,118);stop-opacity:0.99"/><stop offset="1" style="stop-color:rgb(137,56,176);stop-opacity:0.99"/></linearGradient>
    </defs>
</svg>
